<?xml version="1.0" standalone="no"?>
<svg xmlns:xlink="http://www.w3.org/1999/xlink" id="wave" style="transform:rotate(180deg); transition: 0.3s"
     viewBox="0 0 1440 310" version="1.1" xmlns="http://www.w3.org/2000/svg">
    <defs>
        <linearGradient id="sw-gradient-0" x1="0" x2="0" y1="1" y2="0">
            <stop stop-color="rgba(13,110,253, 0.34)" offset="0%"/>
            <stop stop-color="rgba(13,110,253, 0.27)" offset="100%"/>
        </linearGradient>
    </defs>
    <path style="transform:translate(0, 0px); opacity:1" fill="url(#sw-gradient-0)"
          d="M0,31L34.3,67.2C68.6,103,137,176,206,206.7C274.3,238,343,227,411,196.3C480,165,549,114,617,93C685.7,72,754,83,823,113.7C891.4,145,960,196,1029,222.2C1097.1,248,1166,248,1234,211.8C1302.9,176,1371,103,1440,82.7C1508.6,62,1577,93,1646,113.7C1714.3,134,1783,145,1851,149.8C1920,155,1989,155,2057,175.7C2125.7,196,2194,238,2263,237.7C2331.4,238,2400,196,2469,175.7C2537.1,155,2606,155,2674,139.5C2742.9,124,2811,93,2880,93C2948.6,93,3017,124,3086,139.5C3154.3,155,3223,155,3291,170.5C3360,186,3429,217,3497,201.5C3565.7,186,3634,124,3703,82.7C3771.4,41,3840,21,3909,46.5C3977.1,72,4046,145,4114,191.2C4182.9,238,4251,258,4320,248C4388.6,238,4457,196,4526,186C4594.3,176,4663,196,4731,201.5C4800,207,4869,196,4903,191.2L4937.1,186L4937.1,310L4902.9,310C4868.6,310,4800,310,4731,310C4662.9,310,4594,310,4526,310C4457.1,310,4389,310,4320,310C4251.4,310,4183,310,4114,310C4045.7,310,3977,310,3909,310C3840,310,3771,310,3703,310C3634.3,310,3566,310,3497,310C3428.6,310,3360,310,3291,310C3222.9,310,3154,310,3086,310C3017.1,310,2949,310,2880,310C2811.4,310,2743,310,2674,310C2605.7,310,2537,310,2469,310C2400,310,2331,310,2263,310C2194.3,310,2126,310,2057,310C1988.6,310,1920,310,1851,310C1782.9,310,1714,310,1646,310C1577.1,310,1509,310,1440,310C1371.4,310,1303,310,1234,310C1165.7,310,1097,310,1029,310C960,310,891,310,823,310C754.3,310,686,310,617,310C548.6,310,480,310,411,310C342.9,310,274,310,206,310C137.1,310,69,310,34,310L0,310Z"/>
    <defs>
        <linearGradient id="sw-gradient-1" x1="0" x2="0" y1="1" y2="0">
            <stop stop-color="rgba(13,110,253, 0.17)" offset="0%"/>
            <stop stop-color="rgba(13,110,253, 0.14)" offset="100%"/>
        </linearGradient>
    </defs>
    <path style="transform:translate(0, 50px); opacity:0.9" fill="url(#sw-gradient-1)"
          d="M0,124L34.3,108.5C68.6,93,137,62,206,67.2C274.3,72,343,114,411,113.7C480,114,549,72,617,87.8C685.7,103,754,176,823,186C891.4,196,960,145,1029,129.2C1097.1,114,1166,134,1234,129.2C1302.9,124,1371,93,1440,113.7C1508.6,134,1577,207,1646,201.5C1714.3,196,1783,114,1851,103.3C1920,93,1989,155,2057,160.2C2125.7,165,2194,114,2263,87.8C2331.4,62,2400,62,2469,98.2C2537.1,134,2606,207,2674,232.5C2742.9,258,2811,238,2880,191.2C2948.6,145,3017,72,3086,41.3C3154.3,10,3223,21,3291,51.7C3360,83,3429,134,3497,134.3C3565.7,134,3634,83,3703,51.7C3771.4,21,3840,10,3909,20.7C3977.1,31,4046,62,4114,82.7C4182.9,103,4251,114,4320,144.7C4388.6,176,4457,227,4526,237.7C4594.3,248,4663,217,4731,211.8C4800,207,4869,227,4903,237.7L4937.1,248L4937.1,310L4902.9,310C4868.6,310,4800,310,4731,310C4662.9,310,4594,310,4526,310C4457.1,310,4389,310,4320,310C4251.4,310,4183,310,4114,310C4045.7,310,3977,310,3909,310C3840,310,3771,310,3703,310C3634.3,310,3566,310,3497,310C3428.6,310,3360,310,3291,310C3222.9,310,3154,310,3086,310C3017.1,310,2949,310,2880,310C2811.4,310,2743,310,2674,310C2605.7,310,2537,310,2469,310C2400,310,2331,310,2263,310C2194.3,310,2126,310,2057,310C1988.6,310,1920,310,1851,310C1782.9,310,1714,310,1646,310C1577.1,310,1509,310,1440,310C1371.4,310,1303,310,1234,310C1165.7,310,1097,310,1029,310C960,310,891,310,823,310C754.3,310,686,310,617,310C548.6,310,480,310,411,310C342.9,310,274,310,206,310C137.1,310,69,310,34,310L0,310Z"/>
    <defs>
        <linearGradient id="sw-gradient-2" x1="0" x2="0" y1="1" y2="0">
            <stop stop-color="rgba(13,110,253, 0.23)" offset="0%"/>
            <stop stop-color="rgba(13,110,253, 0.28)" offset="100%"/>
        </linearGradient>
    </defs>
    <path style="transform:translate(0, 100px); opacity:0.8" fill="url(#sw-gradient-2)"
          d="M0,93L34.3,108.5C68.6,124,137,155,206,165.3C274.3,176,343,165,411,155C480,145,549,134,617,118.8C685.7,103,754,83,823,103.3C891.4,124,960,186,1029,222.2C1097.1,258,1166,269,1234,232.5C1302.9,196,1371,114,1440,113.7C1508.6,114,1577,196,1646,222.2C1714.3,248,1783,217,1851,217C1920,217,1989,248,2057,232.5C2125.7,217,2194,155,2263,118.8C2331.4,83,2400,72,2469,98.2C2537.1,124,2606,186,2674,180.8C2742.9,176,2811,103,2880,67.2C2948.6,31,3017,31,3086,72.3C3154.3,114,3223,196,3291,191.2C3360,186,3429,93,3497,82.7C3565.7,72,3634,145,3703,144.7C3771.4,145,3840,72,3909,62C3977.1,52,4046,103,4114,124C4182.9,145,4251,134,4320,108.5C4388.6,83,4457,41,4526,67.2C4594.3,93,4663,186,4731,186C4800,186,4869,93,4903,46.5L4937.1,0L4937.1,310L4902.9,310C4868.6,310,4800,310,4731,310C4662.9,310,4594,310,4526,310C4457.1,310,4389,310,4320,310C4251.4,310,4183,310,4114,310C4045.7,310,3977,310,3909,310C3840,310,3771,310,3703,310C3634.3,310,3566,310,3497,310C3428.6,310,3360,310,3291,310C3222.9,310,3154,310,3086,310C3017.1,310,2949,310,2880,310C2811.4,310,2743,310,2674,310C2605.7,310,2537,310,2469,310C2400,310,2331,310,2263,310C2194.3,310,2126,310,2057,310C1988.6,310,1920,310,1851,310C1782.9,310,1714,310,1646,310C1577.1,310,1509,310,1440,310C1371.4,310,1303,310,1234,310C1165.7,310,1097,310,1029,310C960,310,891,310,823,310C754.3,310,686,310,617,310C548.6,310,480,310,411,310C342.9,310,274,310,206,310C137.1,310,69,310,34,310L0,310Z"/>
</svg>